<?xml version="1.0" encoding="utf-8"?>
<!-- Generator: Adobe Illustrator 15.0.1, SVG Export Plug-In . SVG Version: 6.00 Build 0)  -->
<!DOCTYPE svg PUBLIC "-//W3C//DTD SVG 1.1//EN" "http://www.w3.org/Graphics/SVG/1.1/DTD/svg11.dtd">
<svg version="1.1" id="Layer_1" xmlns="http://www.w3.org/2000/svg" xmlns:xlink="http://www.w3.org/1999/xlink" x="0px" y="0px"
	 width="149.2px" height="140.49px" viewBox="0 0 149.2 140.49" enable-background="new 0 0 149.2 140.49" xml:space="preserve">
<g>
	<g id="XMLID_1_">
		<g>
			<path d="M134.7,66.611c3.1,2.16,4.59,3.56,4.5,4.22s-0.47,1.311-1.12,1.97c-2.25,1.78-5.63,16.45-10.13,44.011
				c-0.84,3.569-2.72,6.8-5.62,9.71c-3.1,2.899-5.4,4.21-6.89,3.93c-0.94-0.09-1.6-0.61-1.97-1.54c-0.38-2.16-3.29-6.8-8.72-13.93
				c-1.32-1.311-1.83-2.15-1.55-2.53c0.47-0.37,1.45-0.229,2.95,0.42l7.88,2.82c1.87,0.37,3.28-0.28,4.22-1.97
				c1.87-2.91,3.56-8.44,5.06-16.601c1.97-13.59,2.91-21.13,2.81-22.64c0-1.59-0.47-2.811-1.4-3.65c-1.41-0.85-2.72-1.27-3.94-1.27
				c-19.41,1.41-34.45,4.5-45.14,9.279c-0.66-0.09-1.6-0.699-2.81-1.819c-1.22-0.851-1.88-1.69-1.97-2.54
				c-0.19-0.561,0.14-2.391,0.98-5.48c2.25-26.62,1.64-42.609-1.83-47.95c-0.75-0.659-1.07-1.46-0.98-2.39
				c0.28-0.939,0.98-1.41,2.11-1.41c1.59,0.09,3.84,1.12,6.75,3.09c0.94,0.471,1.59,0.99,1.97,1.551c0-0.091,0.04-0.141,0.14-0.141
				c3.65-0.47,9.98-1.83,18.98-4.08c8.81-3.18,14.39-4.59,16.74-4.22c2.53,0.57,4.12,1.32,4.78,2.25c0.37,0.75,0.23,1.46-0.42,2.11
				c-0.57,0.56-2.58,1.319-6.05,2.25c-4.41,0.939-8.72,2.02-12.94,3.239c0.85,0.561,1.6,1.171,2.25,1.82
				c0.38,0.57,0.42,3.15,0.14,7.74c-0.09,0.189-0.14,0.42-0.14,0.7c3.1-1.12,5.67-1.641,7.74-1.54c2.43,0.37,4.22,1.17,5.34,2.39
				c0.94,1.03,0.28,1.82-1.97,2.39c-3.47,0.65-7.22,1.54-11.25,2.671c-0.19,3.09-0.33,6.38-0.42,9.84c3.75-1.12,6.75-1.641,9-1.54
				c2.34,0.18,4.08,0.979,5.2,2.39c0.75,1.22,0.1,2.01-1.97,2.39c-3.93,0.65-8.06,1.54-12.37,2.671
				c-0.19,3.75-0.33,7.779-0.42,12.09c2.34-0.84,10.31-1.971,23.9-3.37C128.47,63.472,131.33,64.361,134.7,66.611z M96.45,68.161
				c0-4.31,0-8.16,0-11.54c-5.62,1.22-8.86,1.55-9.7,0.99c-1.97-1.41-2.21-2.3-0.7-2.67c3.18-1.03,6.65-2.16,10.4-3.38
				c0-4.03,0-7.45,0-10.261c-1.87,0.28-3.7,0.7-5.48,1.261c-1.88,0.47-3.29,0.42-4.22-0.141c-1.97-1.22-2.21-2.109-0.7-2.67
				c3.37-1.22,6.79-2.439,10.26-3.66c-0.19-5.619-0.7-9.42-1.55-11.39c-5.34,1.13-9.84,1.5-13.5,1.13c-0.84,0.84-1.4,3.51-1.68,8.01
				c-1.5,15.94-1.55,27.431-0.14,34.46c0.18,2.15,1.87,2.95,5.06,2.391C87.59,69.661,91.58,68.812,96.45,68.161z"/>
			<path d="M116.42,89.111c0.19,2.25-0.05,3.84-0.7,4.78c-0.66,0.75-1.32,1.08-1.97,0.979c-1.22-0.18-2.16-0.84-2.81-1.96
				c-1.5-2.54-3.01-4.83-4.5-6.89c-1.5-1.88-2.3-3.24-2.39-4.08c0.18-1.03,0.46-1.601,0.84-1.69c0.65-0.189,3.56,1.271,8.72,4.36
				C115.48,86.111,116.42,87.611,116.42,89.111z"/>
			<path d="M102.08,94.171c0.28,1.69,0.23,3-0.14,3.94c-0.85,1.22-1.74,1.64-2.68,1.26c-1.78-0.649-4.36-4.5-7.73-11.53
				c-0.38-0.75-0.42-1.449-0.14-2.109c0.37-0.84,0.89-1.07,1.55-0.7c1.31,0.66,3.28,2.16,5.9,4.5
				C100.62,90.941,101.7,92.481,102.08,94.171z"/>
			<path d="M88.86,97.972c0.09,1.779-0.14,3.14-0.71,4.079c-1.12,1.221-2.15,1.54-3.09,0.98c-1.97-1.12-4.08-5.39-6.33-12.8
				c-0.28-0.84-0.23-1.54,0.14-2.11c0.47-0.84,1.03-1.07,1.69-0.7C85.53,90.801,88.3,94.312,88.86,97.972z"/>
			<path d="M71,87.421c0.75,1.971,1.08,4.41,0.98,7.311c0.1,4.04-0.75,8.35-2.53,12.939c-0.94,2.721-2.3,4.92-4.08,6.61
				c-1.78,1.22-3,1.08-3.65-0.42c-1.78-2.62-1.97-5.49-0.57-8.58c2.82-5.72,5.11-11.58,6.9-17.58c0.28-0.84,0.74-1.31,1.4-1.4
				C70.11,86.392,70.62,86.771,71,87.421z"/>
			<path fill="#FF0000" d="M61.86,52.551c1.4,0.841,1.64,2.011,0.7,3.511c-1.41,2.72-2.39,5.54-2.95,8.439
				c-2.91,11.721-5.39,19.69-7.46,23.91c3.19,1.22,5.21,3.37,6.05,6.46c0.75,2.82,0.8,4.79,0.14,5.91c-0.47,1.03-1.12,1.6-1.97,1.69
				c-0.65-0.091-3.51-2.25-8.57-6.471c-0.76,1.12-1.55,2.25-2.4,3.37c-9.18,10.41-17.9,15.61-26.15,15.61
				c-1.13-0.37-1.08-0.891,0.14-1.54c0.09-0.19,0.28-0.33,0.56-0.42c10.41-7.04,18.05-13.971,22.92-20.82
				c-3.09-2.62-6.61-4.96-10.54-7.03c-1.97-1.59-2.63-3.42-1.97-5.479c0.93-1.88,2.39-6.75,4.36-14.63
				c-5.16,1.779-9.71,3.939-13.64,6.47c-1.13,0.66-2.16,0.84-3.1,0.56c-2.9-1.97-5.25-3.699-7.03-5.199
				c-0.84-0.75-1.12-1.73-0.84-2.95c0.18-0.851,0.89-1.311,2.11-1.41c3,0.19,5.48,0.1,7.45-0.28c5.44-1.22,10.83-2.39,16.17-3.52
				c3.94-25.311,4.17-40.21,0.71-44.71c-1.13-1.601-1.08-2.721,0.14-3.38c1.49-0.94,3.23-0.841,5.2,0.279
				c4.5,2.351,7.45,4.271,8.86,5.771c0.65,1.22,0.51,2.859-0.42,4.92c-1.6,2.439-2.72,5.91-3.38,10.41
				c-1.5,8.43-3.14,16.87-4.92,25.31c3.47-0.939,6.94-1.83,10.41-2.67c-0.38-1.22-0.76-2.39-1.13-3.52
				c-0.47-1.311-0.09-2.15,1.13-2.53C54.78,48.051,57.92,49.361,61.86,52.551z M52.15,64.222c0.19-1.971,0.33-3.801,0.43-5.49
				c-4.13,1.13-8.07,2.54-11.82,4.22c-1.31,5.54-2.72,10.97-4.21,16.32c0,1.87,0.98,3.229,2.95,4.069
				c2.62,0.94,4.92,1.83,6.89,2.681C49.86,76.831,51.78,69.562,52.15,64.222z"/>
		</g>
		<g>
		</g>
	</g>
</g>
</svg>
