<svg width="54" height="53" viewBox="0 0 54 53" fill="none" xmlns="http://www.w3.org/2000/svg">
<g id="Logo/Frame 1">
<path id="Vector" d="M34.6807 32.2164C35.4109 34.1212 35.1728 35.899 33.9664 37.5498C32.7601 39.2006 31.0617 40.0259 28.8712 40.0259C27.8236 40.0259 26.8318 39.7561 25.896 39.2164C24.9588 38.6767 24.268 37.9625 23.8236 37.0736C21.1887 37.4545 19.0064 36.7796 17.2769 35.0488C15.5461 33.3193 14.8394 31.1053 15.1569 28.4069C14.2045 27.8672 13.4744 27.1294 12.9664 26.1936C12.4585 25.2564 12.2045 24.1847 12.2045 22.9783C12.2045 21.0418 13.0858 19.478 14.8483 18.2869C16.6096 17.0971 18.3315 16.8514 20.014 17.5498L22.9664 18.7879C23.6013 17.8037 24.4426 17.0018 25.4902 16.3821C26.5379 15.7637 27.6648 15.4228 28.8712 15.3593V11.4545H31.7283V15.7402C32.9029 16.0894 33.8712 16.6367 34.6331 17.3821C35.395 18.1288 36.0458 19.1688 36.5855 20.5021H40.7759V23.3593H36.8712C36.8077 24.5656 36.4826 25.6926 35.8959 26.7402C35.308 27.7879 34.522 28.6291 33.5379 29.264L34.6807 32.2164ZM22.8712 33.3593C22.8712 32.5021 22.9429 31.6691 23.0864 30.8602C23.2287 30.0501 23.4426 29.264 23.7283 28.5021C22.9982 28.8513 22.2121 29.0971 21.3702 29.2393C20.5296 29.3828 19.6966 29.4228 18.8712 29.3593C18.8712 30.5974 19.228 31.5739 19.9417 32.2888C20.6566 33.0025 21.6331 33.3593 22.8712 33.3593ZM19.3474 25.5498C20.3633 25.5498 21.2604 25.4228 22.0388 25.1688C22.816 24.9148 23.8236 24.4069 25.0617 23.645L19.3474 21.264C18.4267 20.8831 17.6414 20.8907 16.9912 21.2869C16.3398 21.6844 16.0141 22.3117 16.0141 23.1688C16.0141 23.9942 16.2839 24.5974 16.8236 24.9783C17.3633 25.3593 18.2045 25.5498 19.3474 25.5498ZM28.8712 36.2164C29.6648 36.2164 30.3074 35.9383 30.7988 35.3821C31.2915 34.8272 31.4109 34.2482 31.1569 33.645L28.5855 27.1688C27.9823 28.1847 27.5144 29.2006 27.1817 30.2164C26.8477 31.2323 26.6807 32.1529 26.6807 32.9783C26.6807 34.0259 26.8636 34.8272 27.2293 35.3821C27.5937 35.9383 28.141 36.2164 28.8712 36.2164ZM32.014 25.645C32.3315 25.3275 32.5855 24.9066 32.7759 24.3821C32.9664 23.859 33.0617 23.3117 33.0617 22.7402C33.0617 21.7244 32.7283 20.8672 32.0617 20.1688C31.395 19.4704 30.5696 19.1212 29.5855 19.1212C29.014 19.1212 28.4744 19.2164 27.9664 19.4069C27.4585 19.5974 27.0299 19.8672 26.6807 20.2164L30.395 21.9307L32.014 25.645Z" fill="#BFB2FF"/>
</g>
</svg>
